<svg id="Layer_1" data-name="Layer 1" xmlns="http://www.w3.org/2000/svg" viewBox="0 0 112.05 71.73"><defs><style>.cls-1{fill:#d5d6db;}.cls-2{fill:#029bc5;}.cls-3{fill:#e1e6e9;}.cls-4{fill:#3a556a;}</style></defs><path class="cls-1" d="M72.17,86.85a11.72,11.72,0,0,0-3.88,1.65c-3.14,2-5,4.86-4.08,6.38S68.36,96,71.5,94a12.42,12.42,0,0,0,3.19-2.85,1.57,1.57,0,0,0,.19-1.72l-1.16-2A1.41,1.41,0,0,0,72.17,86.85Z" transform="translate(-0.78 -49.19)"/><path class="cls-1" d="M64.29,59.85a8.55,8.55,0,0,0-2.82,1.2c-2.28,1.46-3.6,3.53-3,4.63s3,.82,5.29-.63A9.13,9.13,0,0,0,66.11,63a1.12,1.12,0,0,0,.13-1.25l-.83-1.43A1,1,0,0,0,64.29,59.85Z" transform="translate(-0.78 -49.19)"/><path class="cls-2" d="M51.47,61a1,1,0,0,0-.65.17l-5.35,3.41a.93.93,0,0,0-.4,1.22.56.56,0,0,0,.21.22l13.18,9.09L76.29,63.72Z" transform="translate(-0.78 -49.19)"/><path class="cls-3" d="M107.85,59.7,59.32,90.25,30.61,101.68,16,104.59l-1.61-2.74L95.25,51.9A18.06,18.06,0,0,1,103,49.24a14.22,14.22,0,0,1,3.46.12,9.61,9.61,0,0,1,2.8.86c1,.48,2.8.54,3.4,1.49C112.69,51.71,114.09,56.08,107.85,59.7Z" transform="translate(-0.78 -49.19)"/><path class="cls-2" d="M60,86.21,39,119.68a.78.78,0,0,0,.34,1.17,1,1,0,0,0,.91-.11l5.34-3.39a10.4,10.4,0,0,0,2.68-2.44L89,67.05Z" transform="translate(-0.78 -49.19)"/><path class="cls-2" d="M7,85.09a1.3,1.3,0,0,0-1.12.17L1.45,88.07a1.26,1.26,0,0,0-.54,1.65,1.09,1.09,0,0,0,.22.26l12.38,9.91,13-8.13Z" transform="translate(-0.78 -49.19)"/><path class="cls-2" d="M17.66,101.68,11,111a.24.24,0,0,0,.05.37.31.31,0,0,0,.31,0l4.13-2.62a.31.31,0,0,0,.09-.07l9.73-11.84Z" transform="translate(-0.78 -49.19)"/><path class="cls-2" d="M105.7,49.76a15.16,15.16,0,0,0-3.57-.12A12.25,12.25,0,0,0,99.94,55a.58.58,0,0,0,.68.61.79.79,0,0,0,.35-.13l7.61-4.84A10,10,0,0,0,105.7,49.76Z" transform="translate(-0.78 -49.19)"/><path class="cls-1" d="M89.12,58.67l5-3.14,4.63,7.87-5,3.14Z" transform="translate(-0.78 -49.19)"/><path class="cls-4" d="M86,61.78a1.24,1.24,0,0,0-.53,1.63l.49.84a1.16,1.16,0,0,0,1.65.2,1.25,1.25,0,0,0,.52-1.57l-.5-.84A1.14,1.14,0,0,0,86,61.78Z" transform="translate(-0.78 -49.19)"/><path class="cls-4" d="M81.53,64.56A1.25,1.25,0,0,0,81,66.18l.5.85a1.16,1.16,0,0,0,1.65.19,1.24,1.24,0,0,0,.51-1.57l-.49-.84A1.14,1.14,0,0,0,81.53,64.56Z" transform="translate(-0.78 -49.19)"/><path class="cls-4" d="M77.06,67.33A1.25,1.25,0,0,0,76.53,69l.49.84a1.17,1.17,0,0,0,1.65.2,1.26,1.26,0,0,0,.52-1.57l-.49-.85A1.15,1.15,0,0,0,77.06,67.33Z" transform="translate(-0.78 -49.19)"/><path class="cls-4" d="M72.6,70.1a1.26,1.26,0,0,0-.54,1.63l.5.84a1.16,1.16,0,0,0,1.65.2,1.25,1.25,0,0,0,.51-1.57l-.49-.84A1.14,1.14,0,0,0,72.6,70.1Z" transform="translate(-0.78 -49.19)"/><path class="cls-4" d="M68.13,72.87a1.26,1.26,0,0,0-.53,1.63l.49.84a1.16,1.16,0,0,0,1.64.26A1.26,1.26,0,0,0,70.26,74l-.49-.84a1.16,1.16,0,0,0-1.64-.26Z" transform="translate(-0.78 -49.19)"/><path class="cls-4" d="M63.67,75.65a1.23,1.23,0,0,0-.53,1.62l.49.85a1.14,1.14,0,0,0,1.63.25,1.26,1.26,0,0,0,.54-1.63l-.5-.84a1.14,1.14,0,0,0-1.63-.25Z" transform="translate(-0.78 -49.19)"/><path class="cls-4" d="M59.2,78.42a1.26,1.26,0,0,0-.53,1.63l.49.84a1.15,1.15,0,0,0,1.64.25,1.25,1.25,0,0,0,.53-1.62l-.49-.85A1.15,1.15,0,0,0,59.2,78.42Z" transform="translate(-0.78 -49.19)"/><path class="cls-4" d="M54.74,81.19a1.24,1.24,0,0,0-.53,1.63l.49.84a1.14,1.14,0,0,0,1.63.25,1.25,1.25,0,0,0,.54-1.62l-.5-.84A1.14,1.14,0,0,0,54.74,81.19Z" transform="translate(-0.78 -49.19)"/><path class="cls-4" d="M50.28,84a1.26,1.26,0,0,0-.54,1.63l.5.84a1.14,1.14,0,0,0,1.63.26,1.25,1.25,0,0,0,.53-1.63l-.49-.84A1.15,1.15,0,0,0,50.28,84Z" transform="translate(-0.78 -49.19)"/><path class="cls-4" d="M45.81,86.74a1.23,1.23,0,0,0-.53,1.62h0l.49.85a1.14,1.14,0,0,0,1.63.25,1.26,1.26,0,0,0,.54-1.63l-.5-.84A1.14,1.14,0,0,0,45.81,86.74Z" transform="translate(-0.78 -49.19)"/><path class="cls-4" d="M41.35,89.51a1.26,1.26,0,0,0-.54,1.63h0l.5.84a1.14,1.14,0,0,0,1.63.25,1.23,1.23,0,0,0,.53-1.62L43,89.76A1.14,1.14,0,0,0,41.35,89.51Z" transform="translate(-0.78 -49.19)"/></svg>