<svg id="Layer_1" data-name="Layer 1" xmlns="http://www.w3.org/2000/svg" xmlns:xlink="http://www.w3.org/1999/xlink" viewBox="0 0 17.03 15"><defs><style>.cls-1{fill:#fff;}.cls-2{fill:url(#linear-gradient);}.cls-3{fill:url(#linear-gradient-2);}</style><linearGradient id="linear-gradient" x1="17.46" y1="18.16" x2="18.05" y2="16.96" gradientTransform="matrix(1, 0, 0, -1, 0, 43.89)" gradientUnits="userSpaceOnUse"><stop offset="0" stop-color="#747def"/><stop offset="1" stop-color="#5e3be1"/></linearGradient><linearGradient id="linear-gradient-2" x1="17.69" y1="17.71" x2="18.04" y2="17.06" xlink:href="#linear-gradient"/></defs><path class="cls-1" d="M28,20a1.67,1.67,0,0,1-.11,1.81L19.3,33.58a1.49,1.49,0,0,1-1.52.61A1.57,1.57,0,0,1,16.57,33L15.31,28.3l-.13-.5-.34-.36-3.26-3.52a1.69,1.69,0,0,1-.36-1.68,1.55,1.55,0,0,1,1.27-1.08l13.92-1.92A1.5,1.5,0,0,1,28,20Z" transform="translate(-11.13 -19.22)"/><path class="cls-1" d="M15.31,28.3,16.57,33a1.57,1.57,0,0,0,1.21,1.16,1.49,1.49,0,0,0,1.52-.61l8.54-11.73A1.67,1.67,0,0,0,28,20L15.18,27.8Z" transform="translate(-11.13 -19.22)"/><path class="cls-2" d="M20.38,24.64a.51.51,0,0,1-.18.68l-4.89,3-.13-.5-.34-.36,4.89-3A.48.48,0,0,1,20.38,24.64Z" transform="translate(-11.13 -19.22)"/><path class="cls-3" d="M15.31,28.3l4.89-3a.51.51,0,0,0,.18-.68l-5.2,3.16Z" transform="translate(-11.13 -19.22)"/></svg>