<svg width="153" height="166" fill="none" xmlns="http://www.w3.org/2000/svg"><path d="M11.559 12.61v1.87H.838v-1.87h10.72zM7.197 8.045v11.387H5.21V8.045h1.987z" fill="#FF7152"/><path d="M11.559 47.61v1.87H.838v-1.87h10.72zm-4.362-4.565v11.387H5.21V43.045h1.987zm4.362 39.565v1.87H.838v-1.87h10.72zm-4.362-4.565v11.387H5.21V78.045h1.987zM46.559 12.61v1.87H35.838v-1.87h10.72zm-4.362-4.565v11.387H40.21V8.045h1.987zm4.362 39.565v1.87H35.838v-1.87h10.72zm-4.362-4.565v11.387H40.21V43.045h1.987zm4.362 39.565v1.87H35.838v-1.87h10.72zm-4.362-4.565v11.387H40.21V78.045h1.987zm4.362 39.565v1.869H35.838v-1.869h10.72zm-4.362-4.565v11.387H40.21v-11.387h1.987zM81.559 12.61v1.87H70.838v-1.87h10.72zm-4.362-4.565v11.387H75.21V8.045h1.987zm4.362 39.565v1.87H70.838v-1.87h10.72zm-4.362-4.565v11.387H75.21V43.045h1.987z" fill="#E5E5E5"/><path d="M81.559 82.61v1.87H70.838v-1.87h10.72zm-4.362-4.565v11.387H75.21V78.045h1.987z" fill="#6246E5"/><path d="M81.559 117.61v1.869H70.838v-1.869h10.72zm-4.362-4.565v11.387H75.21v-11.387h1.987zm4.362 39.565v1.869H70.838v-1.869h10.72zm-4.362-4.565v11.387H75.21v-11.387h1.987zM116.559 12.61v1.87h-10.721v-1.87h10.721zm-4.362-4.565v11.387h-1.987V8.045h1.987zm4.362 39.565v1.87h-10.721v-1.87h10.721zm-4.362-4.565v11.387h-1.987V43.045h1.987zm4.362 39.565v1.87h-10.721v-1.87h10.721zm-4.362-4.565v11.387h-1.987V78.045h1.987zm4.362 39.565v1.869h-10.721v-1.869h10.721zm-4.362-4.565v11.387h-1.987v-11.387h1.987zm4.362 39.565v1.869h-10.721v-1.869h10.721zm-4.362-4.565v11.387h-1.987v-11.387h1.987zM151.559 12.61v1.87h-10.721v-1.87h10.721zm-4.362-4.565v11.387h-1.987V8.045h1.987zm4.362 39.565v1.87h-10.721v-1.87h10.721zm-4.362-4.565v11.387h-1.987V43.045h1.987zm4.362 39.565v1.87h-10.721v-1.87h10.721zm-4.362-4.565v11.387h-1.987V78.045h1.987zm4.362 39.565v1.869h-10.721v-1.869h10.721zm-4.362-4.565v11.387h-1.987v-11.387h1.987zm4.362 39.565v1.869h-10.721v-1.869h10.721zm-4.362-4.565v11.387h-1.987v-11.387h1.987z" fill="#E5E5E5"/></svg>