<svg version="1.1" id="Layer_1" xmlns="http://www.w3.org/2000/svg" x="0" y="0" viewBox="0 0 116 35" xml:space="preserve"><style>.st0{fill:#f1a501}</style><ellipse class="st0" cx="104" cy="22.7" rx="7.8" ry="8.9"/><ellipse class="st0" cx="80.8" cy="22.7" rx="7.8" ry="8.9"/><path d="M.9 24.1v-2.2L7 20.8v3c0 1.6.4 2.9 1.2 3.7.8.8 1.9 1.2 3.3 1.2 1.3 0 2.4-.4 3.1-1.3.8-.9 1.2-2 1.2-3.4V1.4h6.3v22.5c0 3-1 5.6-3 7.6-2 2.1-4.5 3.1-7.6 3.1-3.2 0-5.8-1-7.8-2.9C1.9 29.8.9 27.3.9 24.1zm22.8 3.7c0-1.9.6-3.5 1.9-4.6 1.3-1.2 2.9-1.9 4.9-2.2l5.6-.8c1.1-.2 1.7-.7 1.7-1.6 0-.9-.3-1.6-1-2.1-.6-.6-1.6-.8-2.8-.8-1.3 0-2.3.4-3.1 1.1-.7.7-1.1 1.6-1.2 2.6l-5.4-1.2c.2-2 1.2-3.7 2.9-5.2s4-2.3 6.8-2.3c3.4 0 5.9.8 7.5 2.4 1.6 1.6 2.4 3.6 2.4 6.2v11.1c0 1.3.1 2.5.3 3.6h-5.6c-.2-.7-.2-1.6-.2-2.7-1.4 2.2-3.7 3.4-6.7 3.4-2.3 0-4.2-.7-5.7-2-1.6-1.4-2.3-3-2.3-4.9zm9 2.3c1.4 0 2.6-.4 3.5-1.2 1-.8 1.4-2.2 1.4-4v-1l-5.1.8c-1.9.3-2.8 1.2-2.8 2.9 0 .7.3 1.4.8 1.9.6.3 1.3.6 2.2.6zM67.7.7v29.2c0 1.5.1 2.9.2 4.1H62c-.2-.8-.2-1.6-.2-2.6-.5 1-1.3 1.7-2.5 2.3-1.1.6-2.4.9-3.9.9-3.2 0-5.9-1.1-8-3.4-2.1-2.3-3.1-5.1-3.1-8.6 0-3.3 1-6.1 3-8.4 2.1-2.3 4.7-3.4 7.8-3.4 3.3 0 5.4.9 6.4 2.8V.7h6.2zM50.5 22.6c0 2 .5 3.6 1.6 4.7 1 1.1 2.4 1.7 4 1.7s3-.6 4-1.7c1-1.2 1.6-2.7 1.6-4.7s-.5-3.5-1.6-4.6c-1-1.1-2.4-1.7-4-1.7s-3 .6-4 1.7-1.6 2.7-1.6 4.6zm26.2 4.8c1.1 1.1 2.5 1.7 4.1 1.7 1.6 0 2.9-.6 4-1.7s1.7-2.7 1.7-4.7-.6-3.6-1.7-4.7-2.5-1.7-4-1.7c-1.6 0-3 .6-4.1 1.7-1.1 1.1-1.7 2.7-1.7 4.7s.6 3.6 1.7 4.7zm-4.4-13.3c2.3-2.3 5.1-3.4 8.5-3.4s6.2 1.1 8.5 3.4 3.4 5.1 3.4 8.6-1.1 6.3-3.4 8.6c-2.2 2.3-5.1 3.4-8.5 3.4s-6.2-1.1-8.5-3.4c-2.2-2.3-3.4-5.1-3.4-8.6s1.1-6.3 3.4-8.6z"/><path d="M99.9 27.4c1.1 1.1 2.5 1.7 4.1 1.7 1.6 0 2.9-.6 4-1.7s1.7-2.7 1.7-4.7-.6-3.6-1.7-4.7-2.5-1.7-4-1.7c-1.6 0-3 .6-4.1 1.7-1.1 1.1-1.7 2.7-1.7 4.7s.6 3.6 1.7 4.7zm-4.4-13.3c2.3-2.3 5.1-3.4 8.5-3.4s6.2 1.1 8.5 3.4 3.4 5.1 3.4 8.6-1.1 6.3-3.4 8.6c-2.2 2.3-5.1 3.4-8.5 3.4s-6.2-1.1-8.5-3.4c-2.2-2.3-3.4-5.1-3.4-8.6s1.1-6.3 3.4-8.6z"/></svg>