<?xml version="1.0" encoding="utf-8"?>
<!-- Generator: Adobe Illustrator 25.4.1, SVG Export Plug-In . SVG Version: 6.00 Build 0)  -->
<svg version="1.1" id="Layer_1" xmlns="http://www.w3.org/2000/svg" xmlns:xlink="http://www.w3.org/1999/xlink" x="0px" y="0px"
	 viewBox="0 0 116 35" style="enable-background:new 0 0 116 35;" xml:space="preserve">
<style type="text/css">
	.st0{fill:#F1A501;}
</style>
<ellipse class="st0" cx="104" cy="22.7" rx="7.8" ry="8.9"/>
<ellipse class="st0" cx="80.8" cy="22.7" rx="7.8" ry="8.9"/>
<path d="M0.9,24.1v-2.2L7,20.8v3c0,1.6,0.4,2.9,1.2,3.7c0.8,0.8,1.9,1.2,3.3,1.2c1.3,0,2.4-0.4,3.1-1.3c0.8-0.9,1.2-2,1.2-3.4V1.4
	h6.3v22.5c0,3-1,5.6-3,7.6c-2,2.1-4.5,3.1-7.6,3.1c-3.2,0-5.8-1-7.8-2.9C1.9,29.8,0.9,27.3,0.9,24.1z"/>
<path d="M23.7,27.8c0-1.9,0.6-3.5,1.9-4.6c1.3-1.2,2.9-1.9,4.9-2.2l5.6-0.8c1.1-0.2,1.7-0.7,1.7-1.6c0-0.9-0.3-1.6-1-2.1
	c-0.6-0.6-1.6-0.8-2.8-0.8c-1.3,0-2.3,0.4-3.1,1.1c-0.7,0.7-1.1,1.6-1.2,2.6l-5.4-1.2c0.2-2,1.2-3.7,2.9-5.2c1.7-1.5,4-2.3,6.8-2.3
	c3.4,0,5.9,0.8,7.5,2.4c1.6,1.6,2.4,3.6,2.4,6.2v11.1c0,1.3,0.1,2.5,0.3,3.6h-5.6c-0.2-0.7-0.2-1.6-0.2-2.7
	c-1.4,2.2-3.7,3.4-6.7,3.4c-2.3,0-4.2-0.7-5.7-2C24.4,31.3,23.7,29.7,23.7,27.8z M32.7,30.1c1.4,0,2.6-0.4,3.5-1.2
	c1-0.8,1.4-2.2,1.4-4v-1l-5.1,0.8c-1.9,0.3-2.8,1.2-2.8,2.9c0,0.7,0.3,1.4,0.8,1.9C31.1,29.8,31.8,30.1,32.7,30.1z"/>
<path d="M67.7,0.7v29.2c0,1.5,0.1,2.9,0.2,4.1H62c-0.2-0.8-0.2-1.6-0.2-2.6c-0.5,1-1.3,1.7-2.5,2.3c-1.1,0.6-2.4,0.9-3.9,0.9
	c-3.2,0-5.9-1.1-8-3.4c-2.1-2.3-3.1-5.1-3.1-8.6c0-3.3,1-6.1,3-8.4c2.1-2.3,4.7-3.4,7.8-3.4c3.3,0,5.4,0.9,6.4,2.8V0.7H67.7z
	 M50.5,22.6c0,2,0.5,3.6,1.6,4.7c1,1.1,2.4,1.7,4,1.7c1.6,0,3-0.6,4-1.7c1-1.2,1.6-2.7,1.6-4.7c0-2-0.5-3.5-1.6-4.6
	c-1-1.1-2.4-1.7-4-1.7c-1.6,0-3,0.6-4,1.7C51.1,19.1,50.5,20.7,50.5,22.6z"/>
<path d="M76.7,27.4c1.1,1.1,2.5,1.7,4.1,1.7c1.6,0,2.9-0.6,4-1.7c1.1-1.1,1.7-2.7,1.7-4.7s-0.6-3.6-1.7-4.7c-1.1-1.1-2.5-1.7-4-1.7
	c-1.6,0-3,0.6-4.1,1.7c-1.1,1.1-1.7,2.7-1.7,4.7S75.6,26.3,76.7,27.4z M72.3,14.1c2.3-2.3,5.1-3.4,8.5-3.4s6.2,1.1,8.5,3.4
	c2.3,2.3,3.4,5.1,3.4,8.6s-1.1,6.3-3.4,8.6c-2.2,2.3-5.1,3.4-8.5,3.4s-6.2-1.1-8.5-3.4c-2.2-2.3-3.4-5.1-3.4-8.6S70,16.4,72.3,14.1z
	"/>
<path d="M99.9,27.4c1.1,1.1,2.5,1.7,4.1,1.7c1.6,0,2.9-0.6,4-1.7c1.1-1.1,1.7-2.7,1.7-4.7s-0.6-3.6-1.7-4.7c-1.1-1.1-2.5-1.7-4-1.7
	c-1.6,0-3,0.6-4.1,1.7c-1.1,1.1-1.7,2.7-1.7,4.7S98.8,26.3,99.9,27.4z M95.5,14.1c2.3-2.3,5.1-3.4,8.5-3.4s6.2,1.1,8.5,3.4
	c2.3,2.3,3.4,5.1,3.4,8.6s-1.1,6.3-3.4,8.6c-2.2,2.3-5.1,3.4-8.5,3.4s-6.2-1.1-8.5-3.4c-2.2-2.3-3.4-5.1-3.4-8.6
	S93.2,16.4,95.5,14.1z"/>
</svg>
